<svg width="54" height="54" viewBox="0 0 54 54" fill="none" xmlns="http://www.w3.org/2000/svg">
<g clip-path="url(#clip0_51_196)">
<mask id="mask0_51_196" style="mask-type:luminance" maskUnits="userSpaceOnUse" x="0" y="0" width="54" height="54">
<path d="M42 0H12C5.37258 0 0 5.37258 0 12V42C0 48.6274 5.37258 54 12 54H42C48.6274 54 54 48.6274 54 42V12C54 5.37258 48.6274 0 42 0Z" fill="white"/>
</mask>
<g mask="url(#mask0_51_196)">
<path d="M42 0H12C5.37258 0 0 5.37258 0 12V42C0 48.6274 5.37258 54 12 54H42C48.6274 54 54 48.6274 54 42V12C54 5.37258 48.6274 0 42 0Z" fill="#F36B18"/>
<path d="M15.7947 45.7165C18.8909 47.2389 22.4936 48 26.6028 48C30.7685 48 34.371 47.2389 37.4108 45.7165C40.5069 44.1379 42.8992 41.9673 44.5879 39.2046C50.3505 29.7777 47.0703 21.8507 47.0703 21.8507C44.4711 15.275 35.5193 14.8986 29.316 18.4227C26.757 19.8763 20.7597 29.0113 27.8186 29.3944C34.8775 29.7777 33.8363 33.7076 32.429 35.0607C31.0781 36.3575 29.1359 37.0059 26.6028 37.0059C24.0696 37.0059 22.0995 36.3575 20.6922 35.0607C19.3411 33.7076 18.6657 31.8189 18.6657 29.3944V-11.3945C18.6657 -13.8752 19.3411 -15.764 20.6922 -17.0607C22.0995 -18.3575 24.0696 -19.0059 26.6028 -19.0059C29.1359 -19.0059 31.0781 -18.3575 32.429 -17.0607C33.6257 -15.9581 34.2483 -0.458621 34.4079 5.68187C34.4402 6.92408 35.4571 7.92501 36.6997 7.92501H44.8203C46.0629 7.92501 47.075 6.91785 47.0852 5.67525C47.1426 -1.32375 47.2767 -19.3331 45.75 -21.75C44.0613 -24.5127 40.5069 -26.1098 37.4108 -27.6321C34.371 -29.2107 30.7685 -30 26.6028 -30C22.4936 -30 18.8909 -29.2107 15.7947 -27.6321C12.6987 -26.1098 10.2782 -23.9673 8.53312 -21.2046C6.84438 -18.4421 6 -15.1719 6 -11.3945V29.3944C6 33.1156 6.84438 36.3856 8.53312 39.2046C10.2782 41.9673 12.6987 44.1379 15.7947 45.7165Z" fill="#8B3302"/>
</g>
</g>
<defs>
<clipPath id="clip0_51_196">
<rect width="54" height="54" fill="white"/>
</clipPath>
</defs>
</svg>
