<svg width="36" height="36" viewBox="0 0 36 36" fill="none" xmlns="http://www.w3.org/2000/svg">
<g clip-path="url(#clip0_206_1605)">
<rect width="36" height="36" rx="8" fill="#1D4634"/>
<path d="M10.5298 30.4777C12.5939 31.4926 14.9957 32 17.7352 32C20.5123 32 22.914 31.4926 24.9405 30.4777C27.0046 29.4253 28.5995 27.9782 29.7253 26.1364C33.567 19.8518 31.3802 14.5671 31.3802 14.5671C29.6474 10.1833 23.6795 9.93243 19.544 12.2818C17.838 13.2509 13.8398 19.3409 18.5457 19.5963C23.2517 19.8518 22.5575 22.4717 21.6193 23.3738C20.7187 24.2383 19.4239 24.6706 17.7352 24.6706C16.0464 24.6706 14.733 24.2383 13.7948 23.3738C12.8941 22.4717 12.4438 21.2126 12.4438 19.5963V-7.59632C12.4438 -9.25014 12.8941 -10.5093 13.7948 -11.3738C14.733 -12.2383 16.0464 -12.6706 17.7352 -12.6706C19.4239 -12.6706 20.7187 -12.2383 21.6193 -11.3738C22.4171 -10.6387 22.8322 -0.305748 22.9386 3.78791C22.9601 4.61605 23.6381 5.28334 24.4665 5.28334H29.8802C30.7086 5.28334 31.3833 4.6119 31.3901 3.7835C31.4284 -0.8825 31.5178 -12.8887 30.5 -14.5C29.3742 -16.3418 27.0046 -17.4065 24.9405 -18.4214C22.914 -19.4738 20.5123 -20 17.7352 -20C14.9957 -20 12.5939 -19.4738 10.5298 -18.4214C8.46581 -17.4065 6.85212 -15.9782 5.68875 -14.1364C4.56292 -12.2947 4 -10.1146 4 -7.59632V19.5963C4 22.0771 4.56292 24.2571 5.68875 26.1364C6.85212 27.9782 8.46581 29.4253 10.5298 30.4777Z" fill="#17FFA6"/>
</g>
<defs>
<clipPath id="clip0_206_1605">
<rect width="36" height="36" rx="8" fill="white"/>
</clipPath>
</defs>
</svg>
