<svg width="156" height="36" viewBox="0 0 156 36" fill="none" xmlns="http://www.w3.org/2000/svg">
<g clip-path="url(#clip0_138_1463)">
<rect width="36" height="36" rx="8" fill="#1D4634"/>
<path d="M10.5298 30.4777C12.5939 31.4926 14.9957 32 17.7352 32C20.5123 32 22.914 31.4926 24.9405 30.4777C27.0046 29.4253 28.5995 27.9782 29.7253 26.1364C33.4804 19.9936 31.4758 14.8061 31.3834 14.5751L31.3757 14.5558C29.6371 10.1829 23.676 9.93445 19.544 12.2818C17.838 13.2509 13.8398 19.3409 18.5457 19.5963C23.2517 19.8518 22.5575 22.4717 21.6193 23.3738C20.7187 24.2383 19.4239 24.6706 17.7352 24.6706C16.0464 24.6706 14.733 24.2383 13.7948 23.3738C12.8941 22.4717 12.4438 21.2126 12.4438 19.5963V-7.59632C12.4438 -9.25014 12.8941 -10.5093 13.7948 -11.3738C14.733 -12.2383 16.0464 -12.6706 17.7352 -12.6706C19.4239 -12.6706 20.7187 -12.2383 21.6193 -11.3738C22.4171 -10.6387 22.8322 -0.305748 22.9386 3.78791C22.9601 4.61605 23.6381 5.28334 24.4665 5.28334H29.8802C30.7086 5.28334 31.3833 4.6119 31.3901 3.7835C31.4284 -0.8825 31.5178 -12.8887 30.5 -14.5C29.3742 -16.3418 27.0046 -17.4065 24.9405 -18.4214C22.914 -19.4738 20.5123 -20 17.7352 -20C14.9957 -20 12.5939 -19.4738 10.5298 -18.4214C8.46581 -17.4065 6.85212 -15.9782 5.68875 -14.1364C4.56292 -12.2947 4 -10.1146 4 -7.59632V19.5963C4 22.0771 4.56292 24.2571 5.68875 26.1364C6.85212 27.9782 8.46581 29.4253 10.5298 30.4777Z" fill="#17FFA6"/>
</g>
<path d="M51.12 28.6V26.74H54.5C55.06 26.74 55.4733 26.6067 55.74 26.34C56.02 26.0733 56.16 25.68 56.16 25.16V24.06L56.2 22.02H55.74L56.18 21.62C56.18 22.46 55.9133 23.12 55.38 23.6C54.86 24.08 54.1533 24.32 53.26 24.32C52.1267 24.32 51.2333 23.9467 50.58 23.2C49.9267 22.4533 49.6 21.4467 49.6 20.18V17.94C49.6 16.6733 49.9267 15.6667 50.58 14.92C51.2333 14.1733 52.1267 13.8 53.26 13.8C54.1533 13.8 54.86 14.0467 55.38 14.54C55.9133 15.02 56.18 15.68 56.18 16.52L55.74 16.1H56.18L56.16 14H58.3V25.2C58.3 26.2533 57.9667 27.08 57.3 27.68C56.6333 28.2933 55.7067 28.6 54.52 28.6H51.12ZM53.96 22.46C54.64 22.46 55.1733 22.2533 55.56 21.84C55.96 21.4133 56.16 20.8267 56.16 20.08V18.06C56.16 17.3133 55.96 16.7333 55.56 16.32C55.1733 15.8933 54.64 15.68 53.96 15.68C53.2533 15.68 52.7067 15.8867 52.32 16.3C51.9467 16.7 51.76 17.2867 51.76 18.06V20.08C51.76 20.84 51.9467 21.4267 52.32 21.84C52.7067 22.2533 53.2533 22.46 53.96 22.46ZM64.8922 25.2C63.7455 25.2 62.8389 24.9067 62.1722 24.32C61.5189 23.72 61.1922 22.9067 61.1922 21.88C61.1922 20.84 61.5389 20.0267 62.2322 19.44C62.9389 18.84 63.9055 18.54 65.1322 18.54H68.1922V17.52C68.1922 16.92 68.0055 16.4533 67.6322 16.12C67.2589 15.7867 66.7322 15.62 66.0522 15.62C65.4522 15.62 64.9522 15.7533 64.5522 16.02C64.1522 16.2733 63.9189 16.6133 63.8522 17.04H61.7322C61.8522 16.0533 62.3055 15.2667 63.0922 14.68C63.8922 14.0933 64.8989 13.8 66.1122 13.8C67.4189 13.8 68.4522 14.1333 69.2122 14.8C69.9722 15.4533 70.3522 16.3467 70.3522 17.48V25H68.2522V22.98H67.8922L68.2522 22.58C68.2522 23.38 67.9455 24.02 67.3322 24.5C66.7189 24.9667 65.9055 25.2 64.8922 25.2ZM65.5322 23.54C66.3055 23.54 66.9389 23.3467 67.4322 22.96C67.9389 22.56 68.1922 22.0533 68.1922 21.44V20H65.1722C64.6122 20 64.1655 20.1533 63.8322 20.46C63.5122 20.7667 63.3522 21.1867 63.3522 21.72C63.3522 22.28 63.5455 22.7267 63.9322 23.06C64.3189 23.38 64.8522 23.54 65.5322 23.54ZM74.0244 25V14H76.1044V16.1H76.6244L75.9644 17.4C75.9644 16.2133 76.2244 15.32 76.7444 14.72C77.2644 14.1067 78.0377 13.8 79.0644 13.8C80.2377 13.8 81.1644 14.1667 81.8444 14.9C82.5377 15.62 82.8844 16.6133 82.8844 17.88V18.62H80.6644V18.06C80.6644 17.2733 80.4644 16.6733 80.0644 16.26C79.6777 15.8333 79.131 15.62 78.4244 15.62C77.7177 15.62 77.1644 15.8333 76.7644 16.26C76.3777 16.6867 76.1844 17.2867 76.1844 18.06V25H74.0244ZM89.9766 25.2C89.0832 25.2 88.2966 25.0267 87.6166 24.68C86.9499 24.32 86.4366 23.82 86.0766 23.18C85.7166 22.54 85.5366 21.7933 85.5366 20.94V18.06C85.5366 17.1933 85.7166 16.4467 86.0766 15.82C86.4366 15.18 86.9499 14.6867 87.6166 14.34C88.2966 13.98 89.0832 13.8 89.9766 13.8C90.8832 13.8 91.6699 13.98 92.3366 14.34C93.0032 14.6867 93.5166 15.18 93.8766 15.82C94.2366 16.4467 94.4166 17.1933 94.4166 18.06V20.02H87.6166V20.94C87.6166 21.7533 87.8166 22.3733 88.2166 22.8C88.6299 23.2267 89.2232 23.44 89.9966 23.44C90.6232 23.44 91.1299 23.3333 91.5166 23.12C91.9032 22.8933 92.1432 22.5667 92.2366 22.14H94.3766C94.2166 23.0733 93.7366 23.82 92.9366 24.38C92.1366 24.9267 91.1499 25.2 89.9766 25.2ZM92.3366 18.72V18.04C92.3366 17.24 92.1366 16.62 91.7366 16.18C91.3366 15.74 90.7499 15.52 89.9766 15.52C89.2166 15.52 88.6299 15.74 88.2166 16.18C87.8166 16.62 87.6166 17.2467 87.6166 18.06V18.56L92.4966 18.54L92.3366 18.72ZM101.969 25.2C101.075 25.2 100.289 25.0267 99.6088 24.68C98.9421 24.32 98.4288 23.82 98.0688 23.18C97.7088 22.54 97.5288 21.7933 97.5288 20.94V18.06C97.5288 17.1933 97.7088 16.4467 98.0688 15.82C98.4288 15.18 98.9421 14.6867 99.6088 14.34C100.289 13.98 101.075 13.8 101.969 13.8C102.875 13.8 103.662 13.98 104.329 14.34C104.995 14.6867 105.509 15.18 105.869 15.82C106.229 16.4467 106.409 17.1933 106.409 18.06V20.02H99.6088V20.94C99.6088 21.7533 99.8088 22.3733 100.209 22.8C100.622 23.2267 101.215 23.44 101.989 23.44C102.615 23.44 103.122 23.3333 103.509 23.12C103.895 22.8933 104.135 22.5667 104.229 22.14H106.369C106.209 23.0733 105.729 23.82 104.929 24.38C104.129 24.9267 103.142 25.2 101.969 25.2ZM104.329 18.72V18.04C104.329 17.24 104.129 16.62 103.729 16.18C103.329 15.74 102.742 15.52 101.969 15.52C101.209 15.52 100.622 15.74 100.209 16.18C99.8088 16.62 99.6088 17.2467 99.6088 18.06V18.56L104.489 18.54L104.329 18.72ZM112.541 25L108.901 14H111.101L113.361 21.04C113.508 21.4533 113.634 21.8733 113.741 22.3C113.861 22.7133 113.948 23.04 114.001 23.28C114.068 23.04 114.154 22.7133 114.261 22.3C114.381 21.8733 114.501 21.4533 114.621 21.04L116.841 14H119.021L115.381 25H112.541ZM125.953 25.2C125.42 25.2 124.993 25.0467 124.673 24.74C124.353 24.42 124.193 23.9933 124.193 23.46C124.193 22.9133 124.353 22.48 124.673 22.16C124.993 21.8267 125.42 21.66 125.953 21.66C126.5 21.66 126.926 21.8267 127.233 22.16C127.553 22.48 127.713 22.9133 127.713 23.46C127.713 23.9933 127.553 24.42 127.233 24.74C126.926 25.0467 126.5 25.2 125.953 25.2ZM137.165 25.2C136.059 25.2 135.172 24.8267 134.505 24.08C133.839 23.3333 133.505 22.3267 133.505 21.06V17.96C133.505 16.68 133.839 15.6667 134.505 14.92C135.172 14.1733 136.059 13.8 137.165 13.8C138.072 13.8 138.792 14.0533 139.325 14.56C139.859 15.0533 140.125 15.7333 140.125 16.6L139.665 16.1H140.165L140.105 13.54V10.4H142.265V25H140.125V22.9H139.665L140.125 22.4C140.125 23.2667 139.859 23.9533 139.325 24.46C138.792 24.9533 138.072 25.2 137.165 25.2ZM137.905 23.32C138.585 23.32 139.119 23.1133 139.505 22.7C139.905 22.2733 140.105 21.6867 140.105 20.94V18.06C140.105 17.3133 139.905 16.7333 139.505 16.32C139.119 15.8933 138.585 15.68 137.905 15.68C137.199 15.68 136.645 15.8867 136.245 16.3C135.845 16.7 135.645 17.2867 135.645 18.06V20.94C135.645 21.7133 135.845 22.3067 136.245 22.72C136.645 23.12 137.199 23.32 137.905 23.32ZM149.938 25.2C149.044 25.2 148.258 25.0267 147.578 24.68C146.911 24.32 146.398 23.82 146.038 23.18C145.678 22.54 145.498 21.7933 145.498 20.94V18.06C145.498 17.1933 145.678 16.4467 146.038 15.82C146.398 15.18 146.911 14.6867 147.578 14.34C148.258 13.98 149.044 13.8 149.938 13.8C150.844 13.8 151.631 13.98 152.298 14.34C152.964 14.6867 153.478 15.18 153.838 15.82C154.198 16.4467 154.378 17.1933 154.378 18.06V20.02H147.578V20.94C147.578 21.7533 147.778 22.3733 148.178 22.8C148.591 23.2267 149.184 23.44 149.958 23.44C150.584 23.44 151.091 23.3333 151.478 23.12C151.864 22.8933 152.104 22.5667 152.198 22.14H154.338C154.178 23.0733 153.698 23.82 152.898 24.38C152.098 24.9267 151.111 25.2 149.938 25.2ZM152.298 18.72V18.04C152.298 17.24 152.098 16.62 151.698 16.18C151.298 15.74 150.711 15.52 149.938 15.52C149.178 15.52 148.591 15.74 148.178 16.18C147.778 16.62 147.578 17.2467 147.578 18.06V18.56L152.458 18.54L152.298 18.72Z" fill="black" fill-opacity="0.85"/>
<defs>
<clipPath id="clip0_138_1463">
<rect width="36" height="36" rx="8" fill="white"/>
</clipPath>
</defs>
</svg>
