<svg width="54" height="54" viewBox="0 0 54 54" fill="none" xmlns="http://www.w3.org/2000/svg">
<path d="M22.7607 8.10377L27.8819 7C27.8819 7 30.3287 12.5994 30.3287 15.4623C30.3287 18.3251 28.6216 22.4528 28.6216 22.4528H22.9314C22.9314 22.4528 24.6385 18.3251 24.6385 15.4623C24.6385 12.5994 22.7607 8.10377 22.7607 8.10377Z" fill="#733D08"/>
<path d="M36.2466 30.1792C36.2466 38.9168 28.1325 46 18.1233 46C8.11407 46 0 43.0566 0 30.1792C0 17.3019 8.11407 14.3585 18.1233 14.3585C28.1325 14.3585 36.2466 21.4417 36.2466 30.1792Z" fill="#C44A00"/>
<path d="M54.0005 30.1792C54.0005 43.4245 45.8864 46 35.8772 46C25.868 46 17.7539 38.9168 17.7539 30.1792C17.7539 21.4417 25.868 14.3585 35.8772 14.3585C45.8864 14.3585 54.0005 14.3585 54.0005 30.1792Z" fill="#C44A00"/>
<ellipse cx="34.1375" cy="30.1792" rx="13.2049" ry="15.8208" fill="#E6600F"/>
<ellipse cx="19.8621" cy="30.1792" rx="13.2049" ry="15.8208" fill="#E6600F"/>
<ellipse cx="27" cy="30.1793" rx="8.50685" ry="14.3491" fill="#F36B18"/>
<g filter="url(#filter0_i_56_251)">
<path d="M17.3831 21.3491C17.3831 21.3491 18.1791 23.795 19.2325 25.7642C19.9541 27.1132 21.5966 28.8915 21.5966 28.8915H13.9092L17.3831 21.3491Z" fill="#8B3302"/>
</g>
<g filter="url(#filter1_i_56_251)">
<path d="M35.8766 21.3491C35.8766 21.3491 35.0807 23.795 34.0273 25.7642C33.3057 27.1132 31.6631 28.8915 31.6631 28.8915H39.3506L35.8766 21.3491Z" fill="#8B3302"/>
</g>
<path d="M27.3701 30.5472L28.6513 32.7547H26.0888L27.3701 30.5472Z" fill="#8B3302"/>
<g filter="url(#filter2_i_56_251)">
<path d="M17.014 34.1795C13.2915 33.1662 10.3564 32.0189 10.3564 32.0189C10.3564 32.0189 12.2893 39.0603 23.6715 40.3073V37.9057H28.4797V40.4697C39.827 40.0155 41.7948 33.4906 41.7948 33.4906C41.7948 33.4906 39.7016 33.8936 36.9866 34.3553V37.1699H33.288V34.9512C30.5663 35.3615 27.8494 35.6982 26.2606 35.6982C22.1921 35.6982 21.0825 34.9623 21.0825 34.9623V36.434H17.014V34.1795Z" fill="#8B3302"/>
</g>
<defs>
<filter id="filter0_i_56_251" x="13.9092" y="21.3491" width="7.6875" height="7.54248" filterUnits="userSpaceOnUse" color-interpolation-filters="sRGB">
<feFlood flood-opacity="0" result="BackgroundImageFix"/>
<feBlend mode="normal" in="SourceGraphic" in2="BackgroundImageFix" result="shape"/>
<feColorMatrix in="SourceAlpha" type="matrix" values="0 0 0 0 0 0 0 0 0 0 0 0 0 0 0 0 0 0 127 0" result="hardAlpha"/>
<feOffset dx="1.47945"/>
<feComposite in2="hardAlpha" operator="arithmetic" k2="-1" k3="1"/>
<feColorMatrix type="matrix" values="0 0 0 0 0.941176 0 0 0 0 0.560784 0 0 0 0 0.219608 0 0 0 1 0"/>
<feBlend mode="normal" in2="shape" result="effect1_innerShadow_56_251"/>
</filter>
<filter id="filter1_i_56_251" x="31.6631" y="21.3491" width="7.6875" height="7.54248" filterUnits="userSpaceOnUse" color-interpolation-filters="sRGB">
<feFlood flood-opacity="0" result="BackgroundImageFix"/>
<feBlend mode="normal" in="SourceGraphic" in2="BackgroundImageFix" result="shape"/>
<feColorMatrix in="SourceAlpha" type="matrix" values="0 0 0 0 0 0 0 0 0 0 0 0 0 0 0 0 0 0 127 0" result="hardAlpha"/>
<feOffset dx="-1.47945"/>
<feComposite in2="hardAlpha" operator="arithmetic" k2="-1" k3="1"/>
<feColorMatrix type="matrix" values="0 0 0 0 0.941176 0 0 0 0 0.560784 0 0 0 0 0.219608 0 0 0 1 0"/>
<feBlend mode="normal" in2="shape" result="effect1_innerShadow_56_251"/>
</filter>
<filter id="filter2_i_56_251" x="10.3564" y="32.0189" width="31.4385" height="8.45081" filterUnits="userSpaceOnUse" color-interpolation-filters="sRGB">
<feFlood flood-opacity="0" result="BackgroundImageFix"/>
<feBlend mode="normal" in="SourceGraphic" in2="BackgroundImageFix" result="shape"/>
<feColorMatrix in="SourceAlpha" type="matrix" values="0 0 0 0 0 0 0 0 0 0 0 0 0 0 0 0 0 0 127 0" result="hardAlpha"/>
<feOffset dy="-0.739726"/>
<feComposite in2="hardAlpha" operator="arithmetic" k2="-1" k3="1"/>
<feColorMatrix type="matrix" values="0 0 0 0 0.941176 0 0 0 0 0.560784 0 0 0 0 0.219608 0 0 0 1 0"/>
<feBlend mode="normal" in2="shape" result="effect1_innerShadow_56_251"/>
</filter>
</defs>
</svg>
